<svg width="1200" height="630" viewBox="0 0 1200 630" fill="none" xmlns="http://www.w3.org/2000/svg">
  <defs>
    <style>
      .bg { fill:#F4EFE6; }
      .ink { fill:#0B0B0B; }
      .orange { fill:#F05A1A; }
      .line { stroke:#111111; stroke-width:2; }
      .meta { font-family: Arial, Helvetica, sans-serif; font-size:18px; font-weight:900; letter-spacing:-0.6px; }
      .tiny { font-family: Arial, Helvetica, sans-serif; font-size:10px; font-weight:800; letter-spacing:0.8px; }
      .micro { font-family: Arial, Helvetica, sans-serif; font-size:9px; font-weight:800; letter-spacing:1.2px; }
      .copy { font-family: Arial, Helvetica, sans-serif; font-size:20px; font-weight:900; letter-spacing:-0.4px; }
      .label { font-family: Arial, Helvetica, sans-serif; font-size:13px; font-weight:900; letter-spacing:0.4px; }
      .hero { font-family: Arial Black, Impact, Helvetica, sans-serif; font-size:168px; font-weight:900; letter-spacing:-10px; }
      .hero2 { font-family: Arial Black, Impact, Helvetica, sans-serif; font-size:154px; font-weight:900; letter-spacing:-8px; }
      .footer { font-family: Arial, Helvetica, sans-serif; font-size:14px; font-weight:900; letter-spacing:-0.2px; }
    </style>

    <filter id="rough">
      <feTurbulence type="fractalNoise" baseFrequency="0.8" numOctaves="2" stitchTiles="stitch"/>
      <feColorMatrix type="saturate" values="0"/>
      <feComponentTransfer>
        <feFuncA type="table" tableValues="0 0.08"/>
      </feComponentTransfer>
    </filter>

    <clipPath id="cardClip">
      <rect x="18" y="18" width="1164" height="594" rx="18"/>
    </clipPath>

    <linearGradient id="portraitGrad" x1="0" y1="0" x2="1" y2="1">
      <stop offset="0%" stop-color="#191919"/>
      <stop offset="100%" stop-color="#0C0C0C"/>
    </linearGradient>
  </defs>

  <rect width="1200" height="630" fill="#0A0A0A"/>
  <g clip-path="url(#cardClip)">
    <rect x="18" y="18" width="1164" height="594" rx="18" class="bg"/>
    <rect x="18" y="18" width="1164" height="594" rx="18" fill="none" stroke="#F05A1A" stroke-width="14"/>
    <rect x="18" y="18" width="1164" height="594" filter="url(#rough)" opacity="0.65"/>

    <text x="42" y="54" class="meta ink">NAIRATAG</text>
    <text x="42" y="74" class="meta ink">HANDLE</text>
    <circle cx="205" cy="50" r="13" fill="none" stroke="#111111" stroke-width="2"/>
    <circle cx="205" cy="50" r="6" fill="none" stroke="#111111" stroke-width="2"/>

    <text x="986" y="54" class="meta ink">NAIRATAG.NG</text>
    <text x="986" y="73" class="tiny ink">THE EASIEST WAY</text>
    <text x="986" y="87" class="tiny ink">TO SEND MONEY</text>
    <text x="986" y="101" class="tiny ink">THROUGH IDENTITY.</text>

    <line x1="42" y1="92" x2="760" y2="92" class="line"/>

    <rect x="986" y="116" width="162" height="48" fill="none" stroke="#F05A1A" stroke-width="3"/>
    <circle cx="1012" cy="140" r="13" fill="none" stroke="#F05A1A" stroke-width="3"/>
    <path d="M1006 140 L1011 145 L1020 135" stroke="#F05A1A" stroke-width="3.5" fill="none"/>
    <text x="1032" y="137" class="label ink">VERIFIED</text>
    <text x="1032" y="152" class="label ink">HANDLE</text>

    <text x="36" y="248" class="hero orange">&#8358;femi</text>
    <text x="560" y="338" class="hero2 orange">official</text>

    <text x="42" y="268" class="copy ink">SEND MONEY.</text>
    <text x="42" y="292" class="copy ink">NO ACCOUNT NUMBER.</text>
    <text x="42" y="316" class="copy ink">JUST </text>
    <text x="96" y="316" class="copy orange">#FEMIOFFICIAL.</text>

    <text x="990" y="272" class="copy ink">FAST</text>
    <text x="990" y="296" class="copy ink">SECURE</text>
    <text x="990" y="320" class="copy ink">SIMPLE</text>
    <text x="1070" y="320" class="micro orange">TM</text>

    <rect x="344" y="166" width="540" height="304" fill="url(#portraitGrad)"/>
    <text x="508" y="318" class="copy" fill="#FFFFFF" opacity="0.16">PORTRAIT / PHOTO</text>
    <text x="470" y="341" class="tiny" fill="#FFFFFF" opacity="0.16">replace with user image or generated asset</text>
    <rect x="344" y="166" width="540" height="304" fill="url(#rough)" opacity="0.18"/>

    <g transform="translate(48 370)">
      <rect x="0" y="0" width="206" height="194" rx="14" class="orange"/>
      <rect x="12" y="10" width="54" height="18" fill="#FFFFFF" opacity="0.16" transform="rotate(-12 12 10)"/>
      <rect x="18" y="18" width="24" height="24" rx="7" class="ink"/>
      <text x="23" y="36" font-family="Arial Black, Impact" font-size="16" fill="#FFF">&#8358;</text>
      <text x="18" y="60" class="copy ink">SCAN</text>
      <text x="18" y="84" class="copy ink">TO PAY</text>

      <rect x="18" y="96" width="126" height="126" fill="#FFF" stroke="#111" stroke-width="4"/>
      <rect x="28" y="106" width="28" height="28" fill="none" stroke="#111" stroke-width="7"/>
      <rect x="106" y="106" width="28" height="28" fill="none" stroke="#111" stroke-width="7"/>
      <rect x="28" y="184" width="28" height="28" fill="none" stroke="#111" stroke-width="7"/>
      <rect x="64" y="112" width="12" height="12" fill="#111"/>
      <rect x="78" y="136" width="20" height="20" fill="#111"/>
      <rect x="100" y="162" width="14" height="14" fill="#111"/>
      <rect x="70" y="182" width="18" height="18" fill="#111"/>
      <rect x="58" y="144" width="36" height="36" rx="10" fill="#D84D11"/>
      <text x="68" y="170" font-family="Arial Black, Impact" font-size="24" fill="#FFF">&#8358;</text>

      <text x="18" y="176" class="micro ink">POWERED BY NAIRATAG</text>
    </g>

    <g transform="translate(1040 360)">
      <rect x="-14" y="0" width="66" height="206" fill="#F8F3EA"/>
      <g transform="translate(18 20)">
        <rect width="4" height="122" fill="#111"/>
        <rect x="8" width="2" height="122" fill="#111"/>
        <rect x="14" width="6" height="122" fill="#111"/>
        <rect x="26" width="3" height="122" fill="#111"/>
        <rect x="34" width="8" height="122" fill="#111"/>
        <rect x="48" width="2" height="122" fill="#111"/>
      </g>
      <text x="0" y="160" class="tiny orange">NG</text>
      <text x="0" y="176" class="tiny orange">2026</text>
      <text transform="translate(-2 144) rotate(-90)" class="micro ink">YOUR NAME. YOUR MONEY. YOUR WAY.</text>
    </g>

    <line x1="42" y1="548" x2="1154" y2="548" class="line"/>

    <rect x="42" y="566" width="48" height="48" rx="12" class="ink"/>
    <text x="56" y="599" font-family="Arial Black, Impact" font-size="30" fill="#FFF">&#8358;</text>
    <line x1="118" y1="566" x2="118" y2="614" class="line"/>

    <text x="146" y="585" class="footer ink">PAY ANYONE</text>
    <text x="146" y="602" class="footer ink">WITH JUST A</text>
    <text x="146" y="619" class="footer orange">NAIRATAG.</text>

    <circle cx="620" cy="590" r="22" fill="none" stroke="#111" stroke-width="2"/>
    <line x1="620" y1="568" x2="620" y2="612" class="line"/>
    <line x1="598" y1="590" x2="642" y2="590" class="line"/>

    <text x="662" y="585" class="footer ink">NAIRATAG</text>
    <text x="662" y="602" class="footer ink">GLOBAL IDENTITY</text>
    <text x="662" y="619" class="footer ink">FOR PAYMENTS.</text>

    <circle cx="1090" cy="590" r="28" fill="#F05A1A" opacity="0.92"/>
    <circle cx="1090" cy="590" r="22" fill="#F4EFE6"/>
    <text x="1078" y="598" font-family="Arial Black, Impact" font-size="24" fill="#111">&#8358;</text>
    <text x="999" y="554" class="micro ink">VERIFIED HANDLE • VERIFIED HANDLE</text>
  </g>
</svg>
